<mxfile host="app.diagrams.net" modified="2021-12-30T13:00:26.107Z" agent="5.0 (Macintosh; Intel Mac OS X 10_15_7) AppleWebKit/605.1.15 (KHTML, like Gecko) Version/15.1 Safari/605.1.15" etag="Ec481rkNvoAd-0lA6z7O" version="15.8.2" type="github">
  <diagram id="MjdOXrJQTWFa9QF7BxTR" name="Page-1">
    <mxGraphModel dx="946" dy="516" grid="1" gridSize="10" guides="1" tooltips="1" connect="1" arrows="1" fold="1" page="1" pageScale="1" pageWidth="827" pageHeight="1169" math="0" shadow="0">
      <root>
        <mxCell id="0" />
        <mxCell id="1" parent="0" />
        <mxCell id="-NTaaX5w-wmXJWBAAZoD-1" value="&lt;b&gt;Google &lt;/b&gt;Cloud Platform" style="fillColor=#F6F6F6;strokeColor=none;shadow=0;gradientColor=none;fontSize=14;align=left;spacing=10;fontColor=#717171;9E9E9E;verticalAlign=top;spacingTop=-4;fontStyle=0;spacingLeft=40;html=1;container=0;" vertex="1" parent="1">
          <mxGeometry x="124" y="10" width="526" height="540" as="geometry" />
        </mxCell>
        <mxCell id="-NTaaX5w-wmXJWBAAZoD-2" value="" style="strokeColor=#dddddd;shadow=1;strokeWidth=1;rounded=1;absoluteArcSize=1;arcSize=2;" vertex="1" parent="1">
          <mxGeometry x="20" y="163" width="80" height="44" as="geometry" />
        </mxCell>
        <mxCell id="-NTaaX5w-wmXJWBAAZoD-3" value="GIT" style="sketch=0;dashed=0;connectable=0;html=1;fillColor=default;strokeColor=none;shape=mxgraph.gcp2.blank;part=1;labelPosition=right;verticalLabelPosition=middle;align=left;verticalAlign=middle;spacingLeft=5;fontSize=12;" vertex="1" parent="-NTaaX5w-wmXJWBAAZoD-2">
          <mxGeometry y="0.5" width="32" height="32" relative="1" as="geometry">
            <mxPoint x="5" y="-16" as="offset" />
          </mxGeometry>
        </mxCell>
        <mxCell id="-NTaaX5w-wmXJWBAAZoD-4" value="" style="shape=image;html=1;verticalAlign=top;verticalLabelPosition=bottom;labelBackgroundColor=#ffffff;imageAspect=0;aspect=fixed;image=https://cdn2.iconfinder.com/data/icons/font-awesome/1792/git-square-128.png;fillColor=none;" vertex="1" parent="-NTaaX5w-wmXJWBAAZoD-2">
          <mxGeometry x="6.67" y="6" width="32" height="32" as="geometry" />
        </mxCell>
        <mxCell id="-NTaaX5w-wmXJWBAAZoD-8" value="&lt;font color=&quot;#000000&quot;&gt;&amp;nbsp; &amp;nbsp; &amp;nbsp; &amp;nbsp; &amp;nbsp; &amp;nbsp; &amp;nbsp;Jenkins&lt;/font&gt;" style="sketch=0;points=[[0,0,0],[0.25,0,0],[0.5,0,0],[0.75,0,0],[1,0,0],[1,0.25,0],[1,0.5,0],[1,0.75,0],[1,1,0],[0.75,1,0],[0.5,1,0],[0.25,1,0],[0,1,0],[0,0.75,0],[0,0.5,0],[0,0.25,0]];rounded=1;absoluteArcSize=1;arcSize=2;html=1;strokeColor=none;gradientColor=none;shadow=0;dashed=0;fontSize=12;fontColor=#9E9E9E;align=left;verticalAlign=top;spacing=10;spacingTop=-4;fillColor=#E1F5FE;" vertex="1" parent="1">
          <mxGeometry x="149" y="60" width="481" height="200" as="geometry" />
        </mxCell>
        <mxCell id="-NTaaX5w-wmXJWBAAZoD-9" value="" style="shape=image;html=1;verticalAlign=top;verticalLabelPosition=bottom;labelBackgroundColor=#ffffff;imageAspect=0;aspect=fixed;image=https://cdn0.iconfinder.com/data/icons/font-awesome-brands-vol-1/512/jenkins-128.png;fillColor=default;" vertex="1" parent="1">
          <mxGeometry x="149" y="60" width="40" height="40" as="geometry" />
        </mxCell>
        <mxCell id="-NTaaX5w-wmXJWBAAZoD-11" value="CI JOB" style="dashed=0;strokeColor=#dddddd;shadow=1;strokeWidth=1;labelPosition=center;verticalLabelPosition=middle;align=center;verticalAlign=middle;spacingLeft=5;fontSize=12;fontColor=#000000;fillColor=default;" vertex="1" parent="1">
          <mxGeometry x="195" y="163" width="150" height="44" as="geometry" />
        </mxCell>
        <mxCell id="-NTaaX5w-wmXJWBAAZoD-12" value="CD JOB" style="dashed=0;strokeColor=#dddddd;shadow=1;strokeWidth=1;labelPosition=center;verticalLabelPosition=middle;align=center;verticalAlign=middle;spacingLeft=5;fontSize=12;fontColor=#000000;fillColor=default;" vertex="1" parent="1">
          <mxGeometry x="435" y="163" width="150" height="44" as="geometry" />
        </mxCell>
        <mxCell id="-NTaaX5w-wmXJWBAAZoD-13" value="" style="strokeColor=#dddddd;shadow=1;strokeWidth=1;rounded=1;absoluteArcSize=1;arcSize=2;fontColor=#000000;fillColor=default;align=center;" vertex="1" parent="1">
          <mxGeometry x="190" y="390" width="160" height="60" as="geometry" />
        </mxCell>
        <mxCell id="-NTaaX5w-wmXJWBAAZoD-14" value="&lt;font color=&quot;#000000&quot;&gt;Code Security&lt;br&gt;Scanner (A)&lt;/font&gt;&lt;br&gt;Compute Engine" style="sketch=0;dashed=0;connectable=0;html=1;fillColor=#5184F3;strokeColor=none;shape=mxgraph.gcp2.hexIcon;prIcon=compute_engine;part=1;labelPosition=right;verticalLabelPosition=middle;align=left;verticalAlign=middle;spacingLeft=5;fontColor=#999999;fontSize=12;" vertex="1" parent="-NTaaX5w-wmXJWBAAZoD-13">
          <mxGeometry y="0.5" width="44" height="39" relative="1" as="geometry">
            <mxPoint x="5" y="-19.5" as="offset" />
          </mxGeometry>
        </mxCell>
        <mxCell id="-NTaaX5w-wmXJWBAAZoD-15" value="" style="strokeColor=#dddddd;shadow=1;strokeWidth=1;rounded=1;absoluteArcSize=1;arcSize=2;fontColor=#000000;fillColor=default;align=center;" vertex="1" parent="1">
          <mxGeometry x="190" y="470" width="160" height="60" as="geometry" />
        </mxCell>
        <mxCell id="-NTaaX5w-wmXJWBAAZoD-16" value="&lt;font color=&quot;#000000&quot;&gt;Code Quality&lt;br&gt;Scanner (B)&lt;/font&gt;&lt;br&gt;Compute Engine" style="sketch=0;dashed=0;connectable=0;html=1;fillColor=#5184F3;strokeColor=none;shape=mxgraph.gcp2.hexIcon;prIcon=compute_engine;part=1;labelPosition=right;verticalLabelPosition=middle;align=left;verticalAlign=middle;spacingLeft=5;fontColor=#999999;fontSize=12;" vertex="1" parent="-NTaaX5w-wmXJWBAAZoD-15">
          <mxGeometry y="0.5" width="44" height="39" relative="1" as="geometry">
            <mxPoint x="5" y="-19.5" as="offset" />
          </mxGeometry>
        </mxCell>
        <mxCell id="-NTaaX5w-wmXJWBAAZoD-17" value="" style="strokeColor=#dddddd;shadow=1;strokeWidth=1;rounded=1;absoluteArcSize=1;arcSize=2;fontColor=#000000;fillColor=default;align=center;" vertex="1" parent="1">
          <mxGeometry x="329.5" y="270" width="120" height="60" as="geometry" />
        </mxCell>
        <mxCell id="-NTaaX5w-wmXJWBAAZoD-18" value="Container&#xa;Registry" style="sketch=0;dashed=0;connectable=0;html=1;fillColor=#5184F3;strokeColor=none;shape=mxgraph.gcp2.hexIcon;prIcon=container_registry;part=1;labelPosition=right;verticalLabelPosition=middle;align=left;verticalAlign=middle;spacingLeft=5;fontColor=#999999;fontSize=12;" vertex="1" parent="-NTaaX5w-wmXJWBAAZoD-17">
          <mxGeometry y="0.5" width="44" height="39" relative="1" as="geometry">
            <mxPoint x="5" y="-19.5" as="offset" />
          </mxGeometry>
        </mxCell>
        <mxCell id="-NTaaX5w-wmXJWBAAZoD-19" value="" style="strokeColor=#dddddd;shadow=1;strokeWidth=1;rounded=1;absoluteArcSize=1;arcSize=2;fontColor=#000000;fillColor=default;align=center;" vertex="1" parent="1">
          <mxGeometry x="420" y="430" width="180" height="60" as="geometry" />
        </mxCell>
        <mxCell id="-NTaaX5w-wmXJWBAAZoD-20" value="&lt;font color=&quot;#000000&quot;&gt;Docker Vulnerability&lt;br&gt;Scanner (C)&lt;/font&gt;&lt;br&gt;Compute Engine" style="sketch=0;dashed=0;connectable=0;html=1;fillColor=#5184F3;strokeColor=none;shape=mxgraph.gcp2.hexIcon;prIcon=compute_engine;part=1;labelPosition=right;verticalLabelPosition=middle;align=left;verticalAlign=middle;spacingLeft=5;fontColor=#999999;fontSize=12;" vertex="1" parent="-NTaaX5w-wmXJWBAAZoD-19">
          <mxGeometry y="0.5" width="44" height="39" relative="1" as="geometry">
            <mxPoint x="5" y="-19.5" as="offset" />
          </mxGeometry>
        </mxCell>
        <mxCell id="-NTaaX5w-wmXJWBAAZoD-21" value="" style="strokeColor=#dddddd;shadow=1;strokeWidth=1;rounded=1;absoluteArcSize=1;arcSize=2;fontColor=#000000;fillColor=default;align=center;" vertex="1" parent="1">
          <mxGeometry x="667" y="155" width="147" height="60" as="geometry" />
        </mxCell>
        <mxCell id="-NTaaX5w-wmXJWBAAZoD-22" value="&lt;font color=&quot;#000000&quot;&gt;&lt;span&gt;Kubernetes DEV&lt;br&gt;&lt;/span&gt;&lt;/font&gt;Kubernetes&lt;br&gt;Engine" style="sketch=0;dashed=0;connectable=0;html=1;fillColor=#5184F3;strokeColor=none;shape=mxgraph.gcp2.hexIcon;prIcon=container_engine;part=1;labelPosition=right;verticalLabelPosition=middle;align=left;verticalAlign=middle;spacingLeft=5;fontColor=#999999;fontSize=12;" vertex="1" parent="-NTaaX5w-wmXJWBAAZoD-21">
          <mxGeometry y="0.5" width="44" height="39" relative="1" as="geometry">
            <mxPoint x="5" y="-19.5" as="offset" />
          </mxGeometry>
        </mxCell>
        <mxCell id="-NTaaX5w-wmXJWBAAZoD-23" value="B1. &amp;nbsp;Pobieranie kodu aplikacji" style="text;html=1;strokeColor=none;fillColor=none;align=center;verticalAlign=middle;whiteSpace=wrap;rounded=0;fontColor=#000000;" vertex="1" parent="1">
          <mxGeometry x="100" y="185" width="101" height="30" as="geometry" />
        </mxCell>
        <mxCell id="-NTaaX5w-wmXJWBAAZoD-24" value="" style="edgeStyle=orthogonalEdgeStyle;fontSize=12;html=1;endArrow=blockThin;endFill=1;rounded=0;strokeWidth=2;endSize=4;startSize=4;dashed=0;strokeColor=#4284F3;fontColor=#000000;exitX=0;exitY=0.5;exitDx=0;exitDy=0;entryX=1;entryY=0.5;entryDx=0;entryDy=0;" edge="1" parent="1" source="-NTaaX5w-wmXJWBAAZoD-11" target="-NTaaX5w-wmXJWBAAZoD-2">
          <mxGeometry width="100" relative="1" as="geometry">
            <mxPoint x="229.5" y="240" as="sourcePoint" />
            <mxPoint x="329.5" y="240" as="targetPoint" />
          </mxGeometry>
        </mxCell>
        <mxCell id="-NTaaX5w-wmXJWBAAZoD-26" value="" style="edgeStyle=orthogonalEdgeStyle;fontSize=12;html=1;endArrow=blockThin;endFill=1;rounded=0;strokeWidth=2;endSize=4;startSize=4;dashed=0;strokeColor=#4284F3;fontColor=#000000;exitX=0.25;exitY=0;exitDx=0;exitDy=0;entryX=0.841;entryY=0.04;entryDx=0;entryDy=0;entryPerimeter=0;" edge="1" parent="1" source="-NTaaX5w-wmXJWBAAZoD-11" target="-NTaaX5w-wmXJWBAAZoD-11">
          <mxGeometry width="100" relative="1" as="geometry">
            <mxPoint x="220" y="140" as="sourcePoint" />
            <mxPoint x="320" y="140" as="targetPoint" />
            <Array as="points">
              <mxPoint x="233" y="153" />
              <mxPoint x="321" y="153" />
            </Array>
          </mxGeometry>
        </mxCell>
        <mxCell id="-NTaaX5w-wmXJWBAAZoD-27" value="B2. &amp;nbsp;Budowanie obrazu dokera" style="text;html=1;strokeColor=none;fillColor=none;align=center;verticalAlign=middle;whiteSpace=wrap;rounded=0;fontColor=#000000;" vertex="1" parent="1">
          <mxGeometry x="228.5" y="120" width="101" height="30" as="geometry" />
        </mxCell>
        <mxCell id="-NTaaX5w-wmXJWBAAZoD-28" value="B3. &amp;nbsp;Przeszukanie kodu w poszukiwaniu luk&lt;br&gt;i błędów" style="text;html=1;strokeColor=none;fillColor=none;align=center;verticalAlign=middle;whiteSpace=wrap;rounded=0;fontColor=#000000;" vertex="1" parent="1">
          <mxGeometry x="180" y="310" width="130" height="60" as="geometry" />
        </mxCell>
        <mxCell id="-NTaaX5w-wmXJWBAAZoD-29" value="" style="edgeStyle=orthogonalEdgeStyle;fontSize=12;html=1;endArrow=blockThin;endFill=1;rounded=0;strokeWidth=2;endSize=4;startSize=4;dashed=0;strokeColor=#4284F3;fontColor=#000000;entryX=0;entryY=0.5;entryDx=0;entryDy=0;exitX=0.25;exitY=1;exitDx=0;exitDy=0;" edge="1" parent="1" source="-NTaaX5w-wmXJWBAAZoD-11" target="-NTaaX5w-wmXJWBAAZoD-13">
          <mxGeometry width="100" relative="1" as="geometry">
            <mxPoint x="149" y="290" as="sourcePoint" />
            <mxPoint x="249" y="290" as="targetPoint" />
            <Array as="points">
              <mxPoint x="233" y="280" />
              <mxPoint x="180" y="280" />
              <mxPoint x="180" y="420" />
            </Array>
          </mxGeometry>
        </mxCell>
        <mxCell id="-NTaaX5w-wmXJWBAAZoD-30" value="" style="edgeStyle=orthogonalEdgeStyle;fontSize=12;html=1;endArrow=blockThin;endFill=1;rounded=0;strokeWidth=2;endSize=4;startSize=4;dashed=0;strokeColor=#4284F3;fontColor=#000000;entryX=0;entryY=0.5;entryDx=0;entryDy=0;" edge="1" parent="1" target="-NTaaX5w-wmXJWBAAZoD-15">
          <mxGeometry width="100" relative="1" as="geometry">
            <mxPoint x="180" y="420" as="sourcePoint" />
            <mxPoint x="410" y="280" as="targetPoint" />
            <Array as="points">
              <mxPoint x="180" y="500" />
            </Array>
          </mxGeometry>
        </mxCell>
        <mxCell id="-NTaaX5w-wmXJWBAAZoD-31" value="" style="edgeStyle=orthogonalEdgeStyle;fontSize=12;html=1;endArrow=blockThin;endFill=1;rounded=0;strokeWidth=2;endSize=4;startSize=4;dashed=0;strokeColor=#4284F3;fontColor=#000000;exitX=0.75;exitY=1;exitDx=0;exitDy=0;entryX=0;entryY=0.5;entryDx=0;entryDy=0;" edge="1" parent="1" source="-NTaaX5w-wmXJWBAAZoD-11" target="-NTaaX5w-wmXJWBAAZoD-17">
          <mxGeometry width="100" relative="1" as="geometry">
            <mxPoint x="310" y="280" as="sourcePoint" />
            <mxPoint x="410" y="280" as="targetPoint" />
          </mxGeometry>
        </mxCell>
        <mxCell id="-NTaaX5w-wmXJWBAAZoD-32" value="B4. &amp;nbsp;Wrzucenie obrazu do rejestru" style="text;html=1;strokeColor=none;fillColor=none;align=center;verticalAlign=middle;whiteSpace=wrap;rounded=0;fontColor=#000000;" vertex="1" parent="1">
          <mxGeometry x="310" y="215" width="101" height="30" as="geometry" />
        </mxCell>
        <mxCell id="-NTaaX5w-wmXJWBAAZoD-33" value="" style="edgeStyle=orthogonalEdgeStyle;fontSize=12;html=1;endArrow=blockThin;endFill=1;rounded=0;strokeWidth=2;endSize=4;startSize=4;dashed=0;strokeColor=#4284F3;fontColor=#000000;exitX=1;exitY=0.5;exitDx=0;exitDy=0;" edge="1" parent="1" source="-NTaaX5w-wmXJWBAAZoD-11">
          <mxGeometry width="100" relative="1" as="geometry">
            <mxPoint x="363" y="140" as="sourcePoint" />
            <mxPoint x="440" y="185" as="targetPoint" />
          </mxGeometry>
        </mxCell>
        <mxCell id="-NTaaX5w-wmXJWBAAZoD-34" value="B5. &amp;nbsp;Uruchomienie CD JOB" style="text;html=1;strokeColor=none;fillColor=none;align=center;verticalAlign=middle;whiteSpace=wrap;rounded=0;fontColor=#000000;" vertex="1" parent="1">
          <mxGeometry x="337.75" y="145" width="103.5" height="30" as="geometry" />
        </mxCell>
        <mxCell id="-NTaaX5w-wmXJWBAAZoD-35" value="" style="edgeStyle=orthogonalEdgeStyle;fontSize=12;html=1;endArrow=blockThin;endFill=1;rounded=0;strokeWidth=2;endSize=4;startSize=4;strokeColor=#34A853;dashed=0;fontColor=#000000;exitX=0.5;exitY=1;exitDx=0;exitDy=0;entryX=1;entryY=0.5;entryDx=0;entryDy=0;" edge="1" parent="1" source="-NTaaX5w-wmXJWBAAZoD-12" target="-NTaaX5w-wmXJWBAAZoD-17">
          <mxGeometry width="100" relative="1" as="geometry">
            <mxPoint x="310" y="280" as="sourcePoint" />
            <mxPoint x="410" y="280" as="targetPoint" />
            <Array as="points">
              <mxPoint x="510" y="300" />
            </Array>
          </mxGeometry>
        </mxCell>
        <mxCell id="-NTaaX5w-wmXJWBAAZoD-36" value="D1. &amp;nbsp;Pobieranie obrazu z rejestru" style="text;html=1;strokeColor=none;fillColor=none;align=center;verticalAlign=middle;whiteSpace=wrap;rounded=0;fontColor=#000000;" vertex="1" parent="1">
          <mxGeometry x="510" y="265" width="101" height="30" as="geometry" />
        </mxCell>
        <mxCell id="-NTaaX5w-wmXJWBAAZoD-37" value="" style="edgeStyle=orthogonalEdgeStyle;fontSize=12;html=1;endArrow=blockThin;endFill=1;rounded=0;strokeWidth=2;endSize=4;startSize=4;strokeColor=#34A853;dashed=0;fontColor=#000000;exitX=1;exitY=0.5;exitDx=0;exitDy=0;entryX=0;entryY=0.5;entryDx=0;entryDy=0;" edge="1" parent="1" source="-NTaaX5w-wmXJWBAAZoD-12" target="-NTaaX5w-wmXJWBAAZoD-21">
          <mxGeometry width="100" relative="1" as="geometry">
            <mxPoint x="590" y="183.82" as="sourcePoint" />
            <mxPoint x="690" y="183.82" as="targetPoint" />
          </mxGeometry>
        </mxCell>
        <mxCell id="-NTaaX5w-wmXJWBAAZoD-38" value="D2. Uruchomienie aplikacji" style="text;html=1;strokeColor=none;fillColor=none;align=center;verticalAlign=middle;whiteSpace=wrap;rounded=0;fontColor=#000000;" vertex="1" parent="1">
          <mxGeometry x="566" y="145" width="101" height="30" as="geometry" />
        </mxCell>
        <mxCell id="-NTaaX5w-wmXJWBAAZoD-39" value="" style="edgeStyle=orthogonalEdgeStyle;fontSize=12;html=1;endArrow=blockThin;endFill=1;rounded=0;strokeWidth=2;endSize=4;startSize=4;strokeColor=#EA4335;dashed=0;fontColor=#000000;entryX=0.5;entryY=1;entryDx=0;entryDy=0;exitX=0;exitY=0.5;exitDx=0;exitDy=0;" edge="1" parent="1" source="-NTaaX5w-wmXJWBAAZoD-19" target="-NTaaX5w-wmXJWBAAZoD-17">
          <mxGeometry width="100" relative="1" as="geometry">
            <mxPoint x="310" y="280" as="sourcePoint" />
            <mxPoint x="410" y="280" as="targetPoint" />
          </mxGeometry>
        </mxCell>
        <mxCell id="-NTaaX5w-wmXJWBAAZoD-40" value="S1. &amp;nbsp;Skanowanie obrazów dokera (uruchamiane raz dziennie, w nocy)" style="text;html=1;strokeColor=none;fillColor=none;align=center;verticalAlign=middle;whiteSpace=wrap;rounded=0;fontColor=#000000;" vertex="1" parent="1">
          <mxGeometry x="390" y="380" width="101" height="30" as="geometry" />
        </mxCell>
      </root>
    </mxGraphModel>
  </diagram>
</mxfile>
